<?xml version="1.0" standalone="no"?>
<!DOCTYPE svg PUBLIC "-//W3C//DTD SVG 20010904//EN"
 "http://www.w3.org/TR/2001/REC-SVG-20010904/DTD/svg10.dtd">
<svg version="1.0" xmlns="http://www.w3.org/2000/svg"
 width="192.000000pt" height="192.000000pt" viewBox="0 0 192.000000 192.000000"
 preserveAspectRatio="xMidYMid meet">
<metadata>
Created by potrace 1.11, written by Peter Selinger 2001-2013
</metadata>
<g transform="translate(0.000000,192.000000) scale(0.100000,-0.100000)"
fill="#000000" stroke="none">
<path d="M845 1753 c-114 -16 -259 -76 -350 -143 -224 -166 -340 -403 -330
-675 4 -113 7 -133 36 -225 108 -338 438 -565 794 -547 122 6 205 27 305 75
198 94 344 256 414 458 32 92 37 121 41 239 13 368 -223 694 -575 795 -73 21
-260 34 -335 23z m430 -239 c119 -71 201 -158 260 -275 67 -132 81 -338 32
-477 -25 -73 -68 -151 -111 -205 l-22 -28 -25 38 c-30 48 -68 66 -146 71 l-62
4 -3 139 c-2 117 -6 141 -21 156 -16 16 -44 18 -277 21 l-260 3 0 79 0 78 101
4 c132 4 139 11 139 143 l0 93 108 4 c102 3 111 5 146 32 42 31 66 78 66 126
0 16 3 30 8 30 4 0 34 -16 67 -36z m-741 -609 l186 -185 0 -47 c0 -27 5 -65
10 -85 13 -44 70 -95 117 -104 l33 -6 0 -75 0 -76 -46 7 c-65 9 -173 57 -249
110 -114 82 -200 204 -240 341 -26 89 -29 305 -5 305 5 0 92 -83 194 -185z"/>
</g>
</svg>
